<svg viewBox="0 0 100 100" xmlns="http://www.w3.org/2000/svg">
  <defs>
    <linearGradient id="strandGradient" x1="0%" y1="0%" x2="100%" y2="100%">
      <stop offset="0%" stopColor="#d97706" />
      <stop offset="50%" stopColor="#ea580c" />
      <stop offset="100%" stopColor="#c2410c" />
    </linearGradient>
  </defs>
  <path
    d="M 50 15 
       Q 75 20, 85 35
       Q 90 50, 85 65
       Q 75 80, 50 85
       Q 25 80, 15 65
       Q 10 50, 15 35
       Q 25 20, 50 15
       Z"
    fill="none"
    stroke="url(#strandGradient)"
    strokeWidth="3"
    strokeLinecap="round"
    strokeLinejoin="round"
  />
  <path
    d="M 50 25
       Q 30 30, 25 45
       Q 20 50, 25 55
       Q 30 70, 50 75
       Q 70 70, 75 55
       Q 80 50, 75 45
       Q 70 30, 50 25
       Z"
    fill="none"
    stroke="url(#strandGradient)"
    strokeWidth="3"
    strokeLinecap="round"
    strokeLinejoin="round"
  />
  <path
    d="M 50 20
       Q 65 25, 70 40
       Q 72 50, 70 60
       Q 65 75, 50 80
       Q 35 75, 30 60
       Q 28 50, 30 40
       Q 35 25, 50 20
       Z"
    fill="none"
    stroke="url(#strandGradient)"
    strokeWidth="2.5"
    strokeLinecap="round"
    strokeLinejoin="round"
    opacity="0.8"
  />
</svg>

